<?xml version="1.0" encoding="UTF-8"?>
<svg id="Layer_1" xmlns="http://www.w3.org/2000/svg" version="1.1" viewBox="0 0 160 160">
  <!-- Generator: Adobe Illustrator 30.2.1, SVG Export Plug-In . SVG Version: 2.1.1 Build 1)  -->
  <defs>
    <style>
      .st0 {
        display: none;
      }

      .st0, .st1 {
        fill: #fff;
      }
    </style>
  </defs>
  <path class="st0" d="M0,0h160v160H0V0ZM94.11,117.51c-3.65,1.8-5.67,5.25-5.78,9.04v12.55c.09,5.48,4.46,10.08,10.07,10.08h35.2c5.67,0,10.13-4.64,10.13-10.22v-12.28c-.01-5.69-4.6-10.1-10.25-10.16l-2.33-.03-25.13-69.75,6.41-.07c6.29-.06,11.15-5.18,11.15-11.43v-12.14c-.02-6.14-4.94-11.28-11.16-11.28H47.58c-6.14,0-11.14,5.06-11.14,11.14v12.59c0,6.07,4.91,11.07,10.96,11.12l6.05.05-25.51,69.76c-.67.03-1.21.06-1.89.04-5.58-.15-10.46,4.18-10.46,9.86l-.02,12.73c0,5.51,4.5,10.08,10.08,10.08h35.21c5.66,0,10.07-4.67,10.09-10.22v-12.3c-.02-4.07-2.39-7.67-6.2-9.35l15.16-42.48,14.2,42.67Z"/>
  <path class="st1" d="M94.11,117.51l-14.2-42.67-15.16,42.48c3.81,1.68,6.18,5.28,6.19,9.35v12.3c0,5.56-4.42,10.22-10.08,10.22H25.65c-5.58,0-10.09-4.57-10.08-10.08l.02-12.73c0-5.68,4.89-10.01,10.46-9.86.68.02,1.22,0,1.89-.04l25.51-69.76-6.05-.05c-6.05-.05-10.96-5.05-10.96-11.12v-12.59c0-6.08,5-11.14,11.14-11.14h64.83c6.22,0,11.15,5.15,11.15,11.28v12.14c.02,6.25-4.85,11.37-11.14,11.43l-6.41.07,25.13,69.75,2.33.03c5.65.06,10.23,4.47,10.24,10.16v12.28c.01,5.58-4.44,10.23-10.12,10.23h-35.2c-5.61,0-9.98-4.61-10.07-10.09v-12.55c.11-3.79,2.13-7.24,5.78-9.04Z"/>
</svg>